<?xml version="1.0" encoding="utf-8"?>
<!-- Generator: Adobe Illustrator 16.0.0, SVG Export Plug-In . SVG Version: 6.00 Build 0)  -->
<!DOCTYPE svg PUBLIC "-//W3C//DTD SVG 1.1//EN" "http://www.w3.org/Graphics/SVG/1.1/DTD/svg11.dtd">
<svg version="1.1" id="Layer_1" xmlns="http://www.w3.org/2000/svg" xmlns:xlink="http://www.w3.org/1999/xlink" x="0px" y="0px"
	 width="100px" height="100px" viewBox="0 0 100 100" enable-background="new 0 0 100 100" xml:space="preserve">
<path fill="#EADEB4" d="M77.452,12.5c0-1.699,0-3.25,0-4.951c-3.264,0-6.533,0-9.95,0c0-1.78,0-3.415,0-5.05
	c-8.334,0-16.667,0-25.001,0c0,1.579,0,3.157,0,4.893c-1.59,0.254-3.229-0.009-4.917,0.167c0,1.576,0,3.134,0,4.863
	c-1.692,0-3.312,0-5.005,0c0,5.052,0,9.933,0,14.984c1.512,0.241,3.15-0.022,4.922,0.162c0,1.651,0,3.292,0,4.933
	c-3.333,0-6.667,0-10,0c0-3.333,0-6.667,0-10c0-6.667,0-13.334,0-20.001c-1.667,0-3.333,0-5,0c0,6.667,0,13.334,0,20.001
	c0,3.334,0,6.667,0,10c0,1.667,0,3.334,0,5c0,3.333,0,6.667,0,10c0,1.667,0,3.333,0,5c0,1.666,0,3.333,0,5s0,3.334,0,5
	c0,3.334,0,6.667,0,10.001c3.333,0,6.667,0,10,0c0,1.626,0,3.252,0,5c1.748,0,3.374,0,5,0c0,6.667,0,13.334,0,20.001
	c1.667,0,3.333,0,5,0c0-6.579,0-19.738,0-19.738l25.001-0.173c0,0,0,13.271,0,19.911c1.667,0,3.334,0,5.001,0
	c0-11.667,0-23.335,0-35.002c0-1.666,0-3.333,0-5c0-3.334,0-6.667,0-10c0-1.667,0-3.334,0-5c0-3.292,0-6.583,0-9.949
	c1.67,0,3.223,0,4.887,0c0-1.68,0-3.29,0-5.052c-1.617,0-3.252,0-4.887,0c0-5,0-10,0-15.001C74.138,12.5,75.772,12.5,77.452,12.5z"
	/>
</svg>
